Land_normalized_Motion_pl11
version=1
nRows=12
nColumns=43
inDegrees=yes
endheader
time		pelvis_tilt		pelvis_list		pelvis_rotation		pelvis_tx		pelvis_ty		pelvis_tz		hip_flexion_r		hip_adduction_r		hip_rotation_r		knee_angle_r		ankle_angle_r		subtalar_angle_r		mtp_angle_r		hip_flexion_l		hip_adduction_l		hip_rotation_l		knee_angle_l		ankle_angle_l		subtalar_angle_l		mtp_angle_l		lumbar_extension		lumbar_bending		lumbar_rotation		neck_flexion		neck_lateral_bending		neck_rotation		arm_flex_r		arm_add_r		arm_rot_r		elbow_flex_r		pro_sup_r		wrist_flex_r		wrist_dev_r		hand_finger_flex_r		arm_flex_l		arm_add_l		arm_rot_l		elbow_flex_l		pro_sup_l		wrist_flex_l		wrist_dev_l		hand_finger_flex_l		
1.080000		-2.745424		16.670211		93.090089		-0.006559		1.034067		0.484608		8.629414		-6.624973		-14.623325		-24.061146		-25.482653		0.379915		13.958333		8.644394		-1.285730		-9.998450		-19.135048		-25.072943		-9.310502		30.955636		-39.702928		-1.589057		-1.985024		-41.554104		2.311717		-1.160640		-65.739229		-11.874806		-32.989394		60.715878		67.084946		-26.476226		-0.711212		17.004473		-74.435005		-17.642342		-31.910480		72.226121		101.206256		-20.426093		0.515339		89.219001		
1.082576		-2.843432		16.974039		93.154315		-0.006476		1.023972		0.480162		8.696719		-6.719601		-14.399010		-25.035693		-25.673276		0.412725		14.015594		8.756244		-1.262671		-9.869622		-20.201699		-25.104499		-9.290051		31.027166		-40.049210		-1.647631		-2.116221		-41.500208		2.321131		-1.129964		-65.137603		-12.124200		-33.136064		60.724357		67.150943		-26.570237		-0.709239		16.961481		-73.933423		-17.949567		-31.922812		72.216162		101.190477		-20.356550		0.527265		89.231822		
1.085152		-3.071366		17.056171		93.258400		-0.006692		1.013040		0.476795		9.160518		-6.972119		-13.890791		-26.120178		-25.940649		0.400092		14.212471		9.366825		-1.018857		-9.605875		-21.663748		-24.903969		-9.333356		31.228672		-40.397902		-1.823360		-2.326572		-40.454074		2.277498		-1.017603		-64.437692		-12.272632		-33.390117		60.902134		67.389924		-26.770300		-0.668327		16.889759		-73.382404		-18.353348		-31.929630		72.347812		101.153127		-20.069334		0.539311		89.340038		
1.087727		-3.243855		16.497585		93.231688		-0.006790		1.000954		0.473146		10.542794		-7.162017		-13.070436		-27.562911		-26.240808		0.033609		14.934186		10.751729		-0.815860		-9.278180		-23.311549		-24.977290		-9.683800		31.655836		-39.923996		-2.027417		-2.416604		-40.148083		2.217053		-0.965296		-63.758664		-12.434122		-33.703156		61.052301		68.089521		-26.986880		-0.431267		16.859516		-72.741986		-18.743853		-32.040235		72.317063		101.173915		-19.265968		0.555317		89.621684		
1.090303		-3.343683		16.812710		93.293295		-0.006952		0.990477		0.469429		10.722751		-7.253874		-12.753700		-28.582906		-26.587033		0.059134		15.040242		11.057800		-0.760813		-9.233597		-24.736683		-25.184320		-9.717078		31.720881		-40.458065		-2.065138		-2.545175		-39.373043		2.189670		-0.871137		-63.019641		-12.770821		-33.793089		61.194230		68.156736		-26.991907		-0.474689		16.860157		-72.078187		-19.193888		-31.931421		72.368715		101.310278		-19.201891		0.540283		89.603644		
1.092879		-3.430170		17.043925		93.326605		-0.007157		0.979705		0.465849		11.080536		-7.300940		-12.237983		-29.738583		-26.658715		-0.050474		15.232479		11.512052		-0.696788		-9.056405		-26.272929		-25.384929		-9.827085		31.783703		-40.915844		-2.095014		-2.615142		-38.556051		2.161734		-0.785370		-62.295773		-13.090870		-33.912065		61.415384		68.238351		-27.023814		-0.540861		16.859824		-71.362788		-19.670687		-31.831649		72.464580		101.516764		-19.121732		0.506253		89.615135		
1.095455		-3.480779		17.234732		93.353942		-0.007213		0.968850		0.462408		11.497344		-7.261208		-11.632160		-30.943615		-26.255208		-0.201816		15.484208		12.075521		-0.671981		-8.851092		-27.925656		-25.525970		-9.967293		31.832823		-41.351986		-2.108089		-2.674866		-37.681720		2.107680		-0.706231		-61.507237		-13.442936		-33.942240		61.644877		68.309185		-27.038001		-0.603013		16.866194		-70.618522		-20.217821		-31.684917		72.547958		101.772543		-19.053598		0.473802		89.646131		
1.098030		-3.473830		17.164744		93.317595		-0.007246		0.957343		0.459069		12.332262		-7.136040		-10.822997		-32.472221		-25.067128		-0.291646		15.946842		13.000525		-0.666364		-8.506345		-29.746520		-25.378363		-10.181058		31.912434		-41.502729		-2.111631		-2.651671		-36.865559		2.074765		-0.665976		-60.741771		-13.807966		-33.968613		61.922244		68.382974		-27.043212		-0.704384		16.904518		-69.835617		-20.769723		-31.553351		72.641815		102.216074		-19.003335		0.422044		89.754389		
1.100606		-3.430712		16.445098		93.199942		-0.007311		0.944484		0.455736		14.065076		-6.988480		-9.767094		-34.481525		-22.854414		-0.025907		16.788037		14.767259		-0.640214		-8.071707		-31.884288		-24.645859		-10.411300		32.073309		-40.897757		-2.155758		-2.544386		-36.389019		2.055025		-0.708540		-60.010997		-14.163853		-34.013111		62.182473		68.463546		-27.054554		-0.868092		17.022468		-69.027153		-21.299333		-31.471372		72.730859		103.064802		-18.973859		0.345558		90.000210		
1.103182		-3.344774		16.207646		93.270594		-0.007464		0.932539		0.452596		15.128252		-6.751878		-8.916195		-36.472555		-19.990686		0.254150		17.401643		15.963163		-0.659366		-7.581124		-33.956245		-23.412681		-10.273931		32.254209		-40.902389		-2.027714		-2.541967		-35.469344		2.021494		-0.640169		-59.204885		-14.631343		-33.851363		62.435607		68.516153		-27.027414		-0.988712		17.143227		-68.165559		-21.922792		-31.305769		72.872317		103.634547		-18.988769		0.330673		90.000210		
1.105758		-3.229939		16.040792		93.332012		-0.007556		0.920609		0.449431		16.087327		-6.477724		-8.154381		-38.645869		-16.192478		0.731020		17.774126		17.108388		-0.690788		-7.005052		-36.202976		-21.372766		-9.966135		32.486368		-40.975536		-1.877886		-2.526791		-34.546897		1.992244		-0.622465		-58.419166		-15.105555		-33.681852		62.795694		68.552332		-26.994753		-1.132655		17.264609		-67.314262		-22.576085		-31.118520		73.043284		104.180940		-19.026005		0.326381		90.000210		
1.108333		-3.106482		15.872639		93.423010		-0.007709		0.908602		0.446269		17.030220		-6.207770		-7.501060		-40.993922		-11.702292		1.336100		17.774158		18.283916		-0.707062		-6.413872		-38.632167		-18.529931		-9.475743		32.730821		-41.049187		-1.698841		-2.523522		-33.606093		1.954999		-0.616341		-57.632117		-15.611052		-33.471393		63.181860		68.588301		-26.959302		-1.280081		17.395605		-66.440317		-23.255420		-30.911569		73.238112		104.742748		-19.079009		0.333606		90.000210		
